<svg width="56" height="40" viewBox="0 0 56 40" fill="none" xmlns="http://www.w3.org/2000/svg">
  <rect width="56" height="40" rx="4" fill="white"/>
  <path d="M22 20C22 17.8 23.8 16 26 16C28.2 16 30 17.8 30 20C30 22.2 28.2 24 26 24C23.8 24 22 22.2 22 20Z" fill="#FFF100"/>
  <path d="M30 16C32.2 16 34 17.8 34 20C34 22.2 32.2 24 30 24C28.9 24 28 23.6 27.2 22.9C28.3 22 29 21.1 29 20C29 18.9 28.3 18 27.2 17.1C28 16.4 28.9 16 30 16Z" fill="#00A3DF"/>
  <path d="M26 16C27.1 16 28 16.4 28.8 17.1C27.7 18 27 18.9 27 20C27 21.1 27.7 22 28.8 22.9C28 23.6 27.1 24 26 24C23.8 24 22 22.2 22 20C22 17.8 23.8 16 26 16Z" fill="#EF4123"/>
</svg>
