<svg width="56" height="40" viewBox="0 0 56 40" fill="none" xmlns="http://www.w3.org/2000/svg">
  <rect width="56" height="40" rx="4" fill="white"/>
  <path d="M35.5 12H20.5V28H35.5V12Z" fill="#DEDDDC"/>
  <path d="M21.5 20C21.5 16.7 23.2 13.8 25.8 12C24.2 10.8 22.2 10 20 10C14.5 10 10 14.5 10 20C10 25.5 14.5 30 20 30C22.2 30 24.2 29.2 25.8 28C23.2 26.2 21.5 23.3 21.5 20Z" fill="#EB001B"/>
  <path d="M46 20C46 25.5 41.5 30 36 30C33.8 30 31.8 29.2 30.2 28C32.8 26.2 34.5 23.3 34.5 20C34.5 16.7 32.8 13.8 30.2 12C31.8 10.8 33.8 10 36 10C41.5 10 46 14.5 46 20Z" fill="#F79E1B"/>
  <path d="M30.2 12C32.8 13.8 34.5 16.7 34.5 20C34.5 23.3 32.8 26.2 30.2 28C27.6 26.2 25.9 23.3 25.9 20C25.9 16.7 27.6 13.8 30.2 12Z" fill="#FF5F00"/>
</svg>
