<svg width="56" height="40" viewBox="0 0 56 40" fill="none" xmlns="http://www.w3.org/2000/svg">
  <rect width="56" height="40" rx="4" fill="white"/>
  <path d="M23.5 25.5H19.5L22 14.5H26L23.5 25.5Z" fill="#1434CB"/>
  <path d="M36 14.7C35.2 14.5 34 14.2 32.6 14.2C29.2 14.2 26.8 16 26.8 18.5C26.8 20.4 28.5 21.4 29.8 22C31.1 22.6 31.6 23 31.6 23.6C31.6 24.5 30.5 24.9 29.5 24.9C28.1 24.9 27.3 24.7 26.1 24.2L25.6 24L25.1 27.3C26 27.6 27.6 27.9 29.3 27.9C32.9 27.9 35.2 26.1 35.2 23.4C35.2 21.9 34.2 20.7 32.2 19.8C31 19.2 30.2 18.8 30.2 18.1C30.2 17.5 30.9 16.9 32.3 16.9C33.4 16.9 34.3 17.1 35 17.4L35.4 17.6L35.9 14.5L36 14.7Z" fill="#1434CB"/>
  <path d="M41.5 14.5H38.5C37.7 14.5 37.1 14.7 36.8 15.5L32 25.5H35.6L36.3 23.7H40.3L40.7 25.5H44L41.5 14.5ZM37.3 21.2C37.5 20.7 38.5 18 38.5 18L39 16.5L39.2 17.9C39.2 17.9 39.8 20.5 39.9 21.2H37.3Z" fill="#1434CB"/>
  <path d="M18 14.5L14.6 22.1L14.2 20.2C13.5 18 11.5 15.6 9.2 14.4L12.3 25.5H16L22 14.5H18Z" fill="#1434CB"/>
  <path d="M12.5 14.5H6.5L6.4 14.8C11 16 14 18.8 15 22.2L13.8 15.5C13.6 14.7 13.1 14.5 12.5 14.5Z" fill="#F79F1A"/>
</svg>
